<svg width="9" height="16" viewBox="0 0 9 16" fill="none" xmlns="http://www.w3.org/2000/svg">
<path d="M8.52838 0.384205L6.56361 0.381348C4.35599 0.381348 2.92932 1.85278 2.92932 4.13182V5.8604H0.954079C0.783603 5.8604 0.645508 5.99944 0.645508 6.17087V8.67659C0.645508 8.84801 0.783603 8.98706 0.954079 8.98706H2.92932V15.308C2.92932 15.4794 3.06741 15.6185 3.2379 15.6185H5.81504C5.98552 15.6185 6.12361 15.4794 6.12361 15.308V8.98706H8.43314C8.60361 8.98706 8.74171 8.84801 8.74171 8.67659L8.74266 6.17087C8.74266 6.08801 8.71028 6.00992 8.65219 5.95087C8.59409 5.89182 8.516 5.85944 8.43409 5.85944H6.12361V4.39373C6.12361 3.68897 6.29028 3.33182 7.20361 3.33182H8.52742C8.6979 3.33182 8.83599 3.19278 8.83599 3.02135V0.694681C8.83599 0.523252 8.6979 0.384205 8.52742 0.384205H8.52838Z" fill="#1977F3"/>
</svg>
