<svg width="14" height="12" viewBox="0 0 14 12" fill="none" xmlns="http://www.w3.org/2000/svg">
<path d="M13.1915 7.33736V11.9163H10.5374V7.64452C10.5374 6.57111 10.1548 5.83939 9.19235 5.83939C8.45941 5.83939 8.02387 6.3329 7.83142 6.81042C7.76113 6.98077 7.7438 7.21764 7.7438 7.45707V11.9163H5.08847C5.08847 11.9163 5.12423 4.68202 5.08847 3.93301H7.7438V5.06448C7.73891 5.07314 7.73147 5.08181 7.72648 5.09036H7.7438V5.06448C8.09672 4.52156 8.72593 3.74546 10.1363 3.74546C11.8835 3.74546 13.1915 4.8868 13.1915 7.33858V7.33736ZM2.31219 0.083252C1.40405 0.083252 0.810547 0.679227 0.810547 1.46274C0.810547 2.22899 1.38678 2.84225 2.27765 2.84225H2.29368C3.21911 2.84225 3.79534 2.22899 3.79534 1.46274C3.77806 0.679227 3.21911 0.083252 2.31219 0.083252ZM0.968483 11.9163H3.62136V3.93301H0.968483V11.9163Z" fill="#0A7BBA"/>
</svg>
