<svg width="16" height="13" viewBox="0 0 16 13" fill="none" xmlns="http://www.w3.org/2000/svg">
<path d="M0.674666 3.24292C0.674666 2.50334 0.935083 1.87313 1.45592 1.35229C1.97675 0.831462 2.60175 0.571045 3.33092 0.571045H12.6747C13.4038 0.571045 14.0288 0.831462 14.5497 1.35229C15.0705 1.87313 15.3309 2.50334 15.3309 3.24292V9.89917C15.3309 10.6388 15.0705 11.269 14.5497 11.7898C14.0288 12.3106 13.4038 12.571 12.6747 12.571H3.33092C2.60175 12.571 1.97675 12.3106 1.45592 11.7898C0.935083 11.269 0.674666 10.6388 0.674666 9.89917V3.24292ZM3.33092 1.57104C3.02883 1.57104 2.74758 1.64917 2.48717 1.80542C2.23717 1.95125 2.03925 2.14917 1.89342 2.39917L6.84654 6.69604C6.99237 6.83146 7.16425 6.93563 7.36217 7.00854C7.5705 7.07104 7.78404 7.10229 8.00279 7.10229C8.22154 7.10229 8.42987 7.07104 8.62779 7.00854C8.83612 6.93563 9.01321 6.83146 9.15904 6.69604L14.1122 2.39917C13.9663 2.14917 13.7632 1.95125 13.5028 1.80542C13.2528 1.64917 12.9767 1.57104 12.6747 1.57104H3.33092ZM1.67467 3.52417V9.89917C1.67467 10.045 1.69029 10.1804 1.72154 10.3054C1.75279 10.4304 1.79967 10.5502 1.86217 10.6648L5.47154 6.89917C5.48196 6.88875 5.48717 6.88354 5.48717 6.88354C5.49758 6.87313 5.50279 6.86792 5.50279 6.86792L1.67467 3.52417ZM2.56529 11.3835C2.67987 11.446 2.79967 11.4929 2.92467 11.5242C3.06008 11.5554 3.1955 11.571 3.33092 11.571H12.6747C12.8101 11.571 12.9403 11.5554 13.0653 11.5242C13.2007 11.4929 13.3257 11.446 13.4403 11.3835L9.81529 7.58667C9.79446 7.57625 9.77883 7.56584 9.76842 7.55542C9.76842 7.53459 9.76321 7.51896 9.75279 7.50854C9.50279 7.70646 9.22675 7.8575 8.92467 7.96167C8.62258 8.05542 8.31529 8.10229 8.00279 8.10229C7.69029 8.10229 7.383 8.05542 7.08092 7.96167C6.77883 7.8575 6.50279 7.70646 6.25279 7.50854C6.24237 7.51896 6.23196 7.53459 6.22154 7.55542C6.22154 7.56584 6.21112 7.57625 6.19029 7.58667L2.56529 11.3835ZM14.1434 10.6648C14.2059 10.5502 14.2528 10.4304 14.284 10.3054C14.3153 10.1804 14.3309 10.045 14.3309 9.89917V3.52417L10.5028 6.86792C10.5028 6.86792 10.5028 6.87313 10.5028 6.88354C10.5132 6.88354 10.5236 6.88875 10.534 6.89917L14.1434 10.6648Z" fill="#4C4C4C"/>
</svg>
