<svg width="16" height="14" viewBox="0 0 16 14" fill="none" xmlns="http://www.w3.org/2000/svg">
<path d="M15.1553 2.3685C14.8873 2.49134 14.6138 2.59185 14.3346 2.67001C14.0555 2.74818 13.7651 2.8096 13.4636 2.85426C13.7651 2.66443 14.0275 2.42434 14.2509 2.134C14.4742 1.83249 14.6417 1.50307 14.7533 1.14573C14.4742 1.3244 14.1782 1.48074 13.8656 1.61474C13.5529 1.73758 13.2291 1.83249 12.8941 1.8995C12.6261 1.59799 12.3078 1.36349 11.9393 1.19598C11.5708 1.01731 11.1744 0.927979 10.7501 0.927979C9.94604 0.927979 9.25366 1.22949 8.67298 1.83249C8.10346 2.42434 7.81873 3.1446 7.81873 3.99329C7.81873 4.11612 7.8243 4.23896 7.83545 4.3618C7.8466 4.47346 7.86897 4.58513 7.90249 4.6968C7.28829 4.6633 6.69646 4.5628 6.12694 4.39529C5.55742 4.23896 5.01583 4.0212 4.50215 3.74203C3.98848 3.46286 3.5083 3.13344 3.06163 2.75377C2.61495 2.37409 2.21295 1.94975 1.85561 1.48074C1.7216 1.71524 1.6211 1.96091 1.5541 2.21775C1.48709 2.47459 1.4536 2.74818 1.4536 3.03852C1.4536 3.56336 1.57085 4.04912 1.80535 4.4958C2.05103 4.94247 2.36928 5.3054 2.76012 5.58456C2.51445 5.5734 2.27995 5.53431 2.05661 5.46731C1.83327 5.40031 1.62668 5.31098 1.43685 5.19931V5.23281C1.43685 5.98098 1.66018 6.63427 2.10686 7.19258C2.55353 7.75096 3.11188 8.10273 3.78189 8.24788C3.65906 8.2814 3.53064 8.30927 3.39663 8.33164C3.2738 8.34279 3.14537 8.34836 3.01137 8.34836C2.91087 8.34836 2.81596 8.34836 2.72662 8.34836C2.63729 8.33721 2.54795 8.32049 2.45862 8.29812C2.64845 8.91232 2.98905 9.42038 3.48039 9.82239C3.98289 10.2132 4.55799 10.4142 5.20567 10.4254C4.70316 10.8386 4.13923 11.1624 3.51389 11.3969C2.89971 11.6315 2.24644 11.7487 1.5541 11.7487C1.44243 11.7487 1.32518 11.7431 1.20234 11.7319C1.09067 11.7208 0.973418 11.7096 0.850586 11.6984C1.49827 12.134 2.20178 12.4745 2.96112 12.7202C3.73164 12.9547 4.53007 13.072 5.35642 13.072C6.69646 13.072 7.88569 12.8095 8.92426 12.2847C9.96277 11.7598 10.8337 11.0787 11.5373 10.2411C12.252 9.40366 12.788 8.46564 13.1453 7.42714C13.5138 6.38856 13.6981 5.36123 13.6981 4.34504C13.6981 4.27804 13.6981 4.21662 13.6981 4.16079C13.6981 4.09379 13.6925 4.02679 13.6813 3.95979C13.9717 3.73645 14.2397 3.49636 14.4853 3.23953C14.731 2.97152 14.9544 2.68118 15.1553 2.3685Z" fill="#2DAAE1"/>
</svg>
