<svg width="22" height="22" viewBox="0 0 22 22" fill="none" xmlns="http://www.w3.org/2000/svg">
<path d="M18.0781 18.0781C17.0938 19.0469 15.9922 19.7734 14.7734 20.2578C13.5391 20.7578 12.2812 21.0078 11 21.0078C9.71875 21.0078 8.46094 20.7578 7.22656 20.2578C6.00781 19.7734 4.90625 19.0469 3.92188 18.0781C2.95312 17.0938 2.22656 15.9922 1.74219 14.7734C1.24219 13.5391 0.992188 12.2812 0.992188 11C0.992188 9.71875 1.24219 8.46094 1.74219 7.22656C2.22656 6.00781 2.95312 4.90625 3.92188 3.92188C4.90625 2.95312 6.00781 2.22656 7.22656 1.74219C8.46094 1.24219 9.71875 0.992188 11 0.992188C12.2812 0.992188 13.5391 1.24219 14.7734 1.74219C15.9922 2.22656 17.0938 2.95312 18.0781 3.92188C19.0469 4.90625 19.7734 6.00781 20.2578 7.22656C20.7578 8.46094 21.0078 9.71875 21.0078 11C21.0078 12.2812 20.7578 13.5391 20.2578 14.7734C19.7734 15.9922 19.0469 17.0938 18.0781 18.0781ZM8.51562 7.46094C8.375 7.32031 8.20312 7.25 8 7.25C7.79688 7.25 7.61719 7.32031 7.46094 7.46094C7.32031 7.61719 7.25 7.79688 7.25 8C7.25 8.20312 7.32031 8.375 7.46094 8.51562L9.94531 11L7.46094 13.4844C7.32031 13.625 7.25 13.7969 7.25 14C7.25 14.2031 7.32031 14.3828 7.46094 14.5391C7.61719 14.6797 7.79688 14.75 8 14.75C8.20312 14.75 8.375 14.6797 8.51562 14.5391L11 12.0547L13.4844 14.5391C13.625 14.6797 13.7969 14.75 14 14.75C14.2031 14.75 14.3828 14.6797 14.5391 14.5391C14.6797 14.3828 14.75 14.2031 14.75 14C14.75 13.7969 14.6797 13.625 14.5391 13.4844L12.0547 11L14.5391 8.51562C14.6797 8.375 14.75 8.20312 14.75 8C14.75 7.79688 14.6797 7.61719 14.5391 7.46094C14.3828 7.32031 14.2031 7.25 14 7.25C13.7969 7.25 13.625 7.32031 13.4844 7.46094L11 9.94531L8.51562 7.46094Z" fill="#313131"/>
</svg>
