<svg width="11" height="8" viewBox="0 0 11 8" fill="none" xmlns="http://www.w3.org/2000/svg">
<path d="M10.6641 0.5C10.7786 0.604167 10.8359 0.739583 10.8359 0.90625C10.8359 1.0625 10.7786 1.19271 10.6641 1.29688L4.41406 7.5625C4.33073 7.63542 4.23698 7.67188 4.13281 7.67188C4.02865 7.67188 3.9401 7.63542 3.86719 7.5625L0.664062 4.35938C0.549479 4.25521 0.492188 4.125 0.492188 3.96875C0.492188 3.80208 0.549479 3.66146 0.664062 3.54688C0.778646 3.44271 0.914062 3.39062 1.07031 3.39062C1.22656 3.39062 1.36198 3.44271 1.47656 3.54688L3.86719 5.9375C3.9401 6.01042 4.02865 6.04688 4.13281 6.04688C4.23698 6.04688 4.33073 6.01042 4.41406 5.9375L9.85156 0.5C9.96615 0.385417 10.1016 0.328125 10.2578 0.328125C10.4141 0.328125 10.5495 0.385417 10.6641 0.5Z" fill="#5A00EE"/>
</svg>
