<svg width="13" height="14" viewBox="0 0 13 14" fill="none" xmlns="http://www.w3.org/2000/svg">
<path d="M2.67188 3V3.17188H2.5C1.8125 3.17188 1.22396 3.41667 0.734375 3.90625C0.244792 4.38542 0 4.97396 0 5.67188V11C0 11.6875 0.244792 12.276 0.734375 12.7656C1.22396 13.2552 1.8125 13.5 2.5 13.5H7.82812C8.52604 13.5 9.11458 13.2552 9.59375 12.7656C10.0833 12.276 10.3281 11.6875 10.3281 11V10.8281H10.5C11.1875 10.8281 11.776 10.5885 12.2656 10.1094C12.7552 9.61979 13 9.02604 13 8.32812V3C13 2.3125 12.7552 1.72396 12.2656 1.23438C11.776 0.744792 11.1875 0.5 10.5 0.5H5.17188C4.47396 0.5 3.88021 0.744792 3.39062 1.23438C2.91146 1.72396 2.67188 2.3125 2.67188 3ZM3.67188 3.17188V3C3.67188 2.58333 3.81771 2.22917 4.10938 1.9375C4.40104 1.64583 4.75521 1.5 5.17188 1.5H10.5C10.9167 1.5 11.2708 1.64583 11.5625 1.9375C11.8542 2.22917 12 2.58333 12 3V8.32812C12 8.74479 11.8542 9.09896 11.5625 9.39062C11.2708 9.68229 10.9167 9.82812 10.5 9.82812H10.3281V5.67188C10.3281 4.97396 10.0833 4.38542 9.59375 3.90625C9.11458 3.41667 8.52604 3.17188 7.82812 3.17188H3.67188ZM1 5.67188C1 5.25521 1.14583 4.90104 1.4375 4.60938C1.72917 4.31771 2.08333 4.17188 2.5 4.17188H7.82812C8.24479 4.17188 8.59896 4.31771 8.89062 4.60938C9.18229 4.90104 9.32812 5.25521 9.32812 5.67188V11C9.32812 11.4167 9.18229 11.7708 8.89062 12.0625C8.59896 12.3542 8.24479 12.5 7.82812 12.5H2.5C2.08333 12.5 1.72917 12.3542 1.4375 12.0625C1.14583 11.7708 1 11.4167 1 11V5.67188Z" fill="#5A00EE"/>
</svg>
