<svg width="21" height="22" viewBox="0 0 21 22" fill="none" xmlns="http://www.w3.org/2000/svg">
<path d="M10.1641 1.74219C10.1641 1.53906 10.2344 1.36719 10.375 1.22656C10.5312 1.07031 10.7109 0.992188 10.9141 0.992188C11.1172 0.992188 11.2891 1.07031 11.4297 1.22656C11.5859 1.36719 11.6641 1.53906 11.6641 1.74219V13.2266L13.9141 10.9766C14.0703 10.8203 14.25 10.7422 14.4531 10.7422C14.6562 10.7422 14.8281 10.8203 14.9688 10.9766C15.125 11.1172 15.2031 11.2969 15.2031 11.5156C15.2031 11.7188 15.125 11.8906 14.9688 12.0312L11.4531 15.5703C11.2969 15.7109 11.1172 15.7812 10.9141 15.7812C10.7109 15.7812 10.5312 15.7109 10.375 15.5703L6.85938 12.0312C6.70312 11.8906 6.625 11.7188 6.625 11.5156C6.625 11.2969 6.70312 11.1172 6.85938 10.9766C7 10.8203 7.17188 10.7422 7.375 10.7422C7.57812 10.7422 7.75781 10.8203 7.91406 10.9766L10.1641 13.2266V1.74219ZM2.3125 12.7109C2.3125 12.5078 2.24219 12.3438 2.10156 12.2188C1.96094 12.0781 1.79688 12.0078 1.60938 12.0078C1.42188 12.0078 1.25781 12.0781 1.11719 12.2188C0.976562 12.3438 0.90625 12.5078 0.90625 12.7109V16.5078C0.90625 17.7422 1.33594 18.8047 2.19531 19.6953C3.07031 20.5703 4.11719 21.0078 5.33594 21.0078H16.4922C17.7109 21.0078 18.75 20.5703 19.6094 19.6953C20.4844 18.8047 20.9219 17.7422 20.9219 16.5078V12.7109C20.9219 12.5078 20.8516 12.3438 20.7109 12.2188C20.5703 12.0781 20.4062 12.0078 20.2188 12.0078C20.0312 12.0078 19.8672 12.0781 19.7266 12.2188C19.5859 12.3438 19.5156 12.5078 19.5156 12.7109V16.5078C19.5156 17.3516 19.2188 18.0781 18.625 18.6875C18.0469 19.2812 17.3359 19.5781 16.4922 19.5781H5.33594C4.49219 19.5781 3.77344 19.2812 3.17969 18.6875C2.60156 18.0781 2.3125 17.3516 2.3125 16.5078V12.7109Z" fill="white"/>
</svg>
