<svg width="24" height="27" viewBox="0 0 24 27" fill="none" xmlns="http://www.w3.org/2000/svg">
<path d="M12 0.261719C12.2708 0.261719 12.5 0.365885 12.6875 0.574219C12.8958 0.761719 13 0.990885 13 1.26172V25.9492C13 26.2201 12.8958 26.4596 12.6875 26.668C12.5 26.8555 12.2708 26.9492 12 26.9492C11.7292 26.9492 11.4896 26.8555 11.2812 26.668C11.0938 26.4596 11 26.2201 11 25.9492V1.26172C11 0.990885 11.0938 0.761719 11.2812 0.574219C11.4896 0.365885 11.7292 0.261719 12 0.261719ZM0 5.60547C0 4.8763 0.260417 4.2513 0.78125 3.73047C1.30208 3.20964 1.92708 2.94922 2.65625 2.94922H6.65625C7.40625 2.94922 8.04167 3.20964 8.5625 3.73047C9.08333 4.2513 9.34375 4.8763 9.34375 5.60547V21.6055C9.34375 22.3346 9.08333 22.9596 8.5625 23.4805C8.04167 24.0013 7.40625 24.2617 6.65625 24.2617H2.65625C1.92708 24.2617 1.30208 24.0013 0.78125 23.4805C0.260417 22.9596 0 22.3346 0 21.6055V5.60547ZM14.6562 5.60547V21.6055C14.6562 22.3346 14.9167 22.9596 15.4375 23.4805C15.9583 24.0013 16.5938 24.2617 17.3438 24.2617H21.3438C22.0729 24.2617 22.6979 24.0013 23.2188 23.4805C23.7396 22.9596 24 22.3346 24 21.6055V5.60547C24 4.8763 23.7396 4.2513 23.2188 3.73047C22.6979 3.20964 22.0729 2.94922 21.3438 2.94922H17.3438C16.5938 2.94922 15.9583 3.20964 15.4375 3.73047C14.9167 4.2513 14.6562 4.8763 14.6562 5.60547ZM17.3438 4.94922H21.3438C21.5312 4.94922 21.6875 5.01172 21.8125 5.13672C21.9375 5.26172 22 5.41797 22 5.60547V21.6055C22 21.793 21.9375 21.9492 21.8125 22.0742C21.6875 22.1992 21.5312 22.2617 21.3438 22.2617H17.3438C17.1562 22.2617 16.9896 22.1992 16.8438 22.0742C16.7188 21.9492 16.6562 21.793 16.6562 21.6055V5.60547C16.6562 5.41797 16.7188 5.26172 16.8438 5.13672C16.9896 5.01172 17.1562 4.94922 17.3438 4.94922Z" fill="#4C4C4C"/>
</svg>
