<svg width="28" height="25" viewBox="0 0 28 25" fill="none" xmlns="http://www.w3.org/2000/svg">
<path d="M27.3438 12.1055C27.3438 12.3763 27.2396 12.6159 27.0312 12.8242C26.8438 13.0117 26.6146 13.1055 26.3438 13.1055H1.65625C1.38542 13.1055 1.14583 13.0117 0.9375 12.8242C0.75 12.6159 0.65625 12.3763 0.65625 12.1055C0.65625 11.8346 0.75 11.6055 0.9375 11.418C1.14583 11.2096 1.38542 11.1055 1.65625 11.1055H26.3438C26.6146 11.1055 26.8438 11.2096 27.0312 11.418C27.2396 11.6055 27.3438 11.8346 27.3438 12.1055ZM22 0.105469C22.7292 0.105469 23.3542 0.365885 23.875 0.886719C24.3958 1.40755 24.6562 2.03255 24.6562 2.76172V6.76172C24.6562 7.51172 24.3958 8.14714 23.875 8.66797C23.3542 9.1888 22.7292 9.44922 22 9.44922H6C5.27083 9.44922 4.64583 9.1888 4.125 8.66797C3.60417 8.14714 3.34375 7.51172 3.34375 6.76172V2.76172C3.34375 2.03255 3.60417 1.40755 4.125 0.886719C4.64583 0.365885 5.27083 0.105469 6 0.105469H22ZM22 14.7617H6C5.27083 14.7617 4.64583 15.0221 4.125 15.543C3.60417 16.0638 3.34375 16.6992 3.34375 17.4492V21.4492C3.34375 22.1784 3.60417 22.8034 4.125 23.3242C4.64583 23.8451 5.27083 24.1055 6 24.1055H22C22.7292 24.1055 23.3542 23.8451 23.875 23.3242C24.3958 22.8034 24.6562 22.1784 24.6562 21.4492V17.4492C24.6562 16.6992 24.3958 16.0638 23.875 15.543C23.3542 15.0221 22.7292 14.7617 22 14.7617ZM22.6562 17.4492V21.4492C22.6562 21.6367 22.5938 21.793 22.4688 21.918C22.3438 22.043 22.1875 22.1055 22 22.1055H6C5.8125 22.1055 5.65625 22.043 5.53125 21.918C5.40625 21.793 5.34375 21.6367 5.34375 21.4492V17.4492C5.34375 17.2617 5.40625 17.1055 5.53125 16.9805C5.65625 16.8346 5.8125 16.7617 6 16.7617H22C22.1875 16.7617 22.3438 16.8346 22.4688 16.9805C22.5938 17.1055 22.6562 17.2617 22.6562 17.4492Z" fill="#4C4C4C"/>
</svg>
