<svg width="56" height="79" viewBox="0 0 56 79" fill="none" xmlns="http://www.w3.org/2000/svg">
<path d="M0.258789 9.62238C0.258789 4.79241 4.17425 0.876953 9.00422 0.876953H40.24L47.4064 8.42057L55.3272 15.9642V69.8307C55.3272 74.6607 51.4117 78.5762 46.5818 78.5762H9.00423C4.17426 78.5762 0.258789 74.6607 0.258789 69.8307V9.62238Z" fill="#CCCCCC"/>
<path d="M40.2393 0.876953L47.7829 8.79775L55.3265 15.9642H48.9847C44.1547 15.9642 40.2393 12.0487 40.2393 7.21875V0.876953Z" fill="#888888"/>
<path d="M19.3478 52.5205H36.2278C38.4792 52.5205 39.6947 51.3155 39.6947 49.0747V36.9617C39.6947 34.7209 38.4792 33.5053 36.2278 33.5053H19.3478C17.0964 33.5053 15.8703 34.7209 15.8703 36.9617V49.0747C15.8703 51.3155 17.0964 52.5205 19.3478 52.5205ZM18.312 37.2365C18.312 36.3592 18.7559 35.947 19.5909 35.947H35.9847C36.8092 35.947 37.2637 36.3592 37.2637 37.2365V47.1616L32.7398 42.9336C32.2958 42.532 31.7779 42.3311 31.2494 42.3311C30.6998 42.3311 30.2136 42.5214 29.7591 42.9231L25.2458 46.9502L23.4066 45.2907C22.9838 44.9208 22.5293 44.7305 22.0537 44.7305C21.578 44.7305 21.187 44.9102 20.7747 45.2801L18.312 47.4681V37.2365ZM24.0197 43.3141C25.362 43.3141 26.4719 42.2149 26.4719 40.8619C26.4719 39.5196 25.362 38.4097 24.0197 38.4097C22.6773 38.4097 21.5675 39.5196 21.5675 40.8619C21.5675 42.2149 22.6773 43.3141 24.0197 43.3141Z" fill="white"/>
</svg>
