<svg width="21" height="22" viewBox="0 0 21 22" fill="none" xmlns="http://www.w3.org/2000/svg">
<path d="M16.6719 0.992188C15.625 0.992188 14.7344 1.35937 14 2.09375C13.2812 2.82813 12.9219 3.71094 12.9219 4.74219C12.9219 4.89844 12.9297 5.04688 12.9453 5.1875C12.9609 5.32812 12.9844 5.46875 13.0156 5.60938L7.15625 8.75C6.8125 8.29688 6.38281 7.9375 5.86719 7.67188C5.35156 7.39062 4.78125 7.25 4.15625 7.25C3.125 7.25 2.24219 7.61719 1.50781 8.35156C0.773438 9.08594 0.40625 9.96875 0.40625 11C0.40625 12.0312 0.773438 12.9141 1.50781 13.6484C2.24219 14.3828 3.125 14.75 4.15625 14.75C4.76562 14.75 5.32812 14.6172 5.84375 14.3516C6.375 14.0703 6.8125 13.7031 7.15625 13.25L12.9922 16.4844C12.9609 16.6094 12.9375 16.7344 12.9219 16.8594C12.9219 16.9844 12.9219 17.1172 12.9219 17.2578C12.9219 18.2891 13.2812 19.1719 14 19.9062C14.7344 20.6406 15.625 21.0078 16.6719 21.0078C17.7031 21.0078 18.5859 20.6406 19.3203 19.9062C20.0547 19.1719 20.4219 18.2891 20.4219 17.2578C20.4219 16.2109 20.0547 15.3281 19.3203 14.6094C18.5859 13.875 17.7031 13.5078 16.6719 13.5078C16.0469 13.5078 15.4688 13.6484 14.9375 13.9297C14.4062 14.2109 13.9688 14.5859 13.625 15.0547L7.8125 11.8438C7.84375 11.7188 7.86719 11.5859 7.88281 11.4453C7.89844 11.2891 7.90625 11.1406 7.90625 11C7.90625 10.8594 7.89844 10.7188 7.88281 10.5781C7.86719 10.4375 7.84375 10.2969 7.8125 10.1562L13.6719 7.01562C14.0156 7.46875 14.4453 7.82812 14.9609 8.09375C15.4922 8.35938 16.0625 8.49219 16.6719 8.49219C17.7031 8.49219 18.5859 8.13281 19.3203 7.41406C20.0547 6.67969 20.4219 5.78906 20.4219 4.74219C20.4219 3.71094 20.0547 2.82813 19.3203 2.09375C18.5859 1.35937 17.7031 0.992188 16.6719 0.992188ZM14.4219 4.74219C14.4219 4.13281 14.6406 3.60937 15.0781 3.17188C15.5156 2.71875 16.0469 2.49219 16.6719 2.49219C17.2812 2.49219 17.8047 2.71875 18.2422 3.17188C18.6953 3.60937 18.9219 4.13281 18.9219 4.74219C18.9219 5.36719 18.6953 5.89844 18.2422 6.33594C17.8047 6.77344 17.2812 6.99219 16.6719 6.99219C16.0469 6.99219 15.5156 6.77344 15.0781 6.33594C14.6406 5.89844 14.4219 5.36719 14.4219 4.74219ZM1.90625 11C1.90625 10.375 2.125 9.84375 2.5625 9.40625C3.01562 8.96875 3.54688 8.75 4.15625 8.75C4.78125 8.75 5.3125 8.96875 5.75 9.40625C6.1875 9.84375 6.40625 10.375 6.40625 11C6.40625 11.625 6.1875 12.1562 5.75 12.5938C5.3125 13.0312 4.78125 13.25 4.15625 13.25C3.54688 13.25 3.01562 13.0312 2.5625 12.5938C2.125 12.1562 1.90625 11.625 1.90625 11ZM16.6719 15.0078C17.2812 15.0078 17.8047 15.2266 18.2422 15.6641C18.6953 16.1016 18.9219 16.6328 18.9219 17.2578C18.9219 17.8672 18.6953 18.3984 18.2422 18.8516C17.8047 19.2891 17.2812 19.5078 16.6719 19.5078C16.0469 19.5078 15.5156 19.2891 15.0781 18.8516C14.6406 18.3984 14.4219 17.8672 14.4219 17.2578C14.4219 16.6328 14.6406 16.1016 15.0781 15.6641C15.5156 15.2266 16.0469 15.0078 16.6719 15.0078Z" fill="#C209C1"/>
</svg>
