<svg width="22" height="22" viewBox="0 0 22 22" fill="none" xmlns="http://www.w3.org/2000/svg">
<path d="M15.5234 8.46436C15.6797 8.60498 15.7578 8.78467 15.7578 9.00342C15.7578 9.20654 15.6797 9.37842 15.5234 9.51904L10.3438 14.6987C10.25 14.7925 10.1328 14.8394 9.99219 14.8394C9.85156 14.8394 9.73438 14.7925 9.64062 14.6987L6.47656 11.5347C6.32031 11.3784 6.24219 11.1987 6.24219 10.9956C6.24219 10.7925 6.32031 10.6128 6.47656 10.4565C6.61719 10.3159 6.78906 10.2456 6.99219 10.2456C7.21094 10.2456 7.39062 10.3159 7.53125 10.4565L9.78125 12.73C9.84375 12.7769 9.91406 12.8003 9.99219 12.8003C10.0859 12.8003 10.1562 12.7769 10.2031 12.73L14.4688 8.46436C14.6094 8.32373 14.7812 8.25342 14.9844 8.25342C15.2031 8.25342 15.3828 8.32373 15.5234 8.46436ZM21.0078 10.9956C21.0078 9.62061 20.7422 8.32373 20.2109 7.10498C19.6953 5.88623 18.9844 4.82373 18.0781 3.91748C17.1719 3.01123 16.1094 2.30029 14.8906 1.78467C13.6719 1.25342 12.375 0.987793 11 0.987793C9.625 0.987793 8.32812 1.25342 7.10938 1.78467C5.89062 2.30029 4.82812 3.01123 3.92188 3.91748C3.01562 4.82373 2.30469 5.88623 1.78906 7.10498C1.25781 8.32373 0.992188 9.62061 0.992188 10.9956C0.992188 12.3706 1.25781 13.6675 1.78906 14.8862C2.30469 16.105 3.01562 17.1675 3.92188 18.0737C4.82812 18.98 5.89062 19.6909 7.10938 20.2065C8.32812 20.7378 9.625 21.0034 11 21.0034C12.375 21.0034 13.6719 20.7378 14.8906 20.2065C16.1094 19.6909 17.1719 18.98 18.0781 18.0737C18.9844 17.1675 19.6953 16.105 20.2109 14.8862C20.7422 13.6675 21.0078 12.3706 21.0078 10.9956ZM19.5078 10.9956C19.5078 12.1675 19.2812 13.269 18.8281 14.3003C18.3906 15.3315 17.7812 16.2378 17 17.019C16.2344 17.7847 15.3359 18.3862 14.3047 18.8237C13.2734 19.2769 12.1719 19.5034 11 19.5034C9.82812 19.5034 8.72656 19.2769 7.69531 18.8237C6.66406 18.3862 5.75781 17.7847 4.97656 17.019C4.21094 16.2378 3.60938 15.3315 3.17188 14.3003C2.71875 13.269 2.49219 12.1675 2.49219 10.9956C2.49219 9.82373 2.71875 8.72217 3.17188 7.69092C3.60938 6.65967 4.21094 5.76123 4.97656 4.99561C5.75781 4.21436 6.66406 3.60498 7.69531 3.16748C8.72656 2.71436 9.82812 2.48779 11 2.48779C12.1719 2.48779 13.2734 2.71436 14.3047 3.16748C15.3359 3.60498 16.2344 4.21436 17 4.99561C17.7812 5.76123 18.3906 6.65967 18.8281 7.69092C19.2812 8.72217 19.5078 9.82373 19.5078 10.9956Z" fill="white"/>
</svg>
