<svg width="16" height="16" viewBox="0 0 16 16" fill="none" xmlns="http://www.w3.org/2000/svg">
<path d="M0.475778 0.472168C0.616403 0.315918 0.788278 0.237793 0.991403 0.237793C1.21015 0.237793 1.38984 0.315918 1.53047 0.472168L7.99922 6.94092L14.468 0.472168C14.6086 0.315918 14.7805 0.237793 14.9836 0.237793C15.2023 0.237793 15.382 0.315918 15.5227 0.472168C15.6789 0.612793 15.757 0.79248 15.757 1.01123C15.757 1.21436 15.6789 1.38623 15.5227 1.52686L9.0539 7.99561L15.5227 14.4644C15.6789 14.605 15.757 14.7847 15.757 15.0034C15.757 15.2065 15.6789 15.3784 15.5227 15.519C15.382 15.6753 15.2023 15.7534 14.9836 15.7534C14.7805 15.7534 14.6086 15.6753 14.468 15.519L7.99922 9.05029L1.53047 15.519C1.38984 15.6753 1.21015 15.7534 0.991403 15.7534C0.788278 15.7534 0.616403 15.6753 0.475778 15.519C0.319528 15.3784 0.241403 15.2065 0.241403 15.0034C0.241403 14.7847 0.319528 14.605 0.475778 14.4644L6.94453 7.99561L0.475778 1.52686C0.319528 1.38623 0.241403 1.21436 0.241403 1.01123C0.241403 0.79248 0.319528 0.612793 0.475778 0.472168Z" fill="white"/>
</svg>
