<svg width="16" height="16" viewBox="0 0 16 16" fill="none" xmlns="http://www.w3.org/2000/svg">
<path d="M8 0.0078125C8.20312 0.0078125 8.375 0.078125 8.51562 0.21875C8.67188 0.359375 8.75 0.539062 8.75 0.757812V7.25H15.2422C15.4609 7.25 15.6406 7.32812 15.7812 7.48438C15.9219 7.625 15.9922 7.79688 15.9922 8C15.9922 8.20312 15.9219 8.38281 15.7812 8.53906C15.6406 8.67969 15.4609 8.75 15.2422 8.75H8.75V15.2422C8.75 15.4609 8.67188 15.6406 8.51562 15.7812C8.375 15.9219 8.20312 15.9922 8 15.9922C7.79688 15.9922 7.61719 15.9219 7.46094 15.7812C7.32031 15.6406 7.25 15.4609 7.25 15.2422V8.75H0.757812C0.539062 8.75 0.359375 8.67969 0.21875 8.53906C0.078125 8.38281 0.0078125 8.20312 0.0078125 8C0.0078125 7.79688 0.078125 7.625 0.21875 7.48438C0.359375 7.32812 0.539062 7.25 0.757812 7.25H7.25V0.757812C7.25 0.539062 7.32031 0.359375 7.46094 0.21875C7.61719 0.078125 7.79688 0.0078125 8 0.0078125Z" fill="white"/>
</svg>
